<svg width="512" height="512" viewBox="0 0 512 512" fill="none" xmlns="http://www.w3.org/2000/svg">
  <!-- Main N Body -->
  <path d="M100 100 H200 L300 250 V100 H400 V400 H300 L200 250 V400 H100 V100 Z" fill="#8347DD" stroke="black" stroke-width="12" stroke-linejoin="round"/>
  
  <!-- Eyes -->
  <circle cx="200" cy="220" r="45" fill="white" stroke="black" stroke-width="8"/>
  <circle cx="200" cy="220" r="18" fill="black"/>
  <circle cx="210" cy="212" r="6" fill="white"/>
  
  <circle cx="310" cy="220" r="45" fill="white" stroke="black" stroke-width="8"/>
  <circle cx="310" cy="220" r="18" fill="black"/>
  <circle cx="320" cy="212" r="6" fill="white"/>

  <!-- Eyebrows -->
  <path d="M170 160 Q200 140 230 160" stroke="black" stroke-width="8" stroke-linecap="round" fill="none"/>
  <path d="M280 160 Q310 140 340 160" stroke="black" stroke-width="8" stroke-linecap="round" fill="none"/>

  <!-- Mouth -->
  <path d="M200 300 Q255 360 310 300" fill="black" stroke="black" stroke-width="8" stroke-linecap="round"/>
  <path d="M200 300 Q255 360 310 300" fill="white"/>
  <path d="M220 320 Q255 350 290 320" fill="#FF4D4D"/>

  <!-- Hands (Paws) -->
  <path d="M60 420 C60 390 90 380 110 400 C120 380 150 380 160 400 C170 380 200 380 210 410 V450 H60 V420 Z" fill="white" stroke="black" stroke-width="8"/>
  <path d="M452 420 C452 390 422 380 402 400 C392 380 362 380 352 400 C342 380 312 380 302 410 V450 H452 V420 Z" fill="white" stroke="black" stroke-width="8"/>
</svg>
