<svg xmlns="http://www.w3.org/2000/svg" viewBox="0 0 48 48" width="48px" height="48px">
<path fill="#4db6ac" d="M7.705,4.146L6.844,5.568C6.305,6.456,6,7.485,6,8.552v30.895c0,1.067,0.305,2.096,0.844,2.984 l0.861,1.422l20.173-20.173L7.705,4.146z"/>
<path fill="#dce775" d="M7.705,4.146C8.822,2.809,10.662,2.23,12.341,2.83l22.093,7.915L27.878,23.68L7.705,4.146z"/>
<path fill="#ba68c8" d="M27.878,23.68l6.556,12.936l-22.093,7.915c-1.678,0.601-3.519,0.021-4.636-1.316L27.878,23.68z"/>
<path fill="#ef5350" d="M34.434,10.745l5.961,2.136c2.896,1.037,2.896,5.199,0,6.236l-5.961,2.136L27.878,23.68 L34.434,10.745z"/>
</svg>
